<svg xmlns="http://www.w3.org/2000/svg" width="353" height="170" viewBox="0 0 353 170">
  <g id="Group_66" data-name="Group 66" transform="translate(-12 -294)">
    <g id="Ellipse_1" data-name="Ellipse 1" transform="translate(180 444)" fill="none" stroke="#fff8e4" stroke-width="3">
      <circle cx="10" cy="10" r="10" stroke="none"/>
      <circle cx="10" cy="10" r="8.5" fill="none"/>
    </g>
    <g id="Ellipse_8" data-name="Ellipse 8" transform="translate(180 354)" fill="none" stroke="#fee8aa" stroke-width="3">
      <circle cx="10" cy="10" r="10" stroke="none"/>
      <circle cx="10" cy="10" r="8.5" fill="none"/>
    </g>
    <g id="Ellipse_5" data-name="Ellipse 5" transform="translate(180 294)" fill="none" stroke="#fedb7a" stroke-width="3">
      <circle cx="10" cy="10" r="10" stroke="none"/>
      <circle cx="10" cy="10" r="8.5" fill="none"/>
    </g>
    <g id="Ellipse_2" data-name="Ellipse 2" transform="translate(180 414)" fill="none" stroke="#fff3d1" stroke-width="3">
      <circle cx="10" cy="10" r="10" stroke="none"/>
      <circle cx="10" cy="10" r="8.5" fill="none"/>
    </g>
    <g id="Ellipse_7" data-name="Ellipse 7" transform="translate(213 324)" fill="none" stroke="#fede87" stroke-width="3">
      <circle cx="10" cy="10" r="10" stroke="none"/>
      <circle cx="10" cy="10" r="8.5" fill="none"/>
    </g>
    <g id="Ellipse_10" data-name="Ellipse 10" transform="translate(213 354)" fill="none" stroke="#fee8aa" stroke-width="3">
      <circle cx="10" cy="10" r="10" stroke="none"/>
      <circle cx="10" cy="10" r="8.5" fill="none"/>
    </g>
    <g id="Ellipse_11" data-name="Ellipse 11" transform="translate(213 384)" fill="none" stroke="#feedbf" stroke-width="3">
      <circle cx="10" cy="10" r="10" stroke="none"/>
      <circle cx="10" cy="10" r="8.5" fill="none"/>
    </g>
    <g id="Ellipse_12" data-name="Ellipse 12" transform="translate(213 294)" fill="none" stroke="#fedb7a" stroke-width="3">
      <circle cx="10" cy="10" r="10" stroke="none"/>
      <circle cx="10" cy="10" r="8.5" fill="none"/>
    </g>
    <g id="Ellipse_13" data-name="Ellipse 13" transform="translate(213 414)" fill="none" stroke="#fff3d1" stroke-width="3">
      <circle cx="10" cy="10" r="10" stroke="none"/>
      <circle cx="10" cy="10" r="8.5" fill="none"/>
    </g>
    <g id="Ellipse_16" data-name="Ellipse 16" transform="translate(246 354)" fill="none" stroke="#fee8aa" stroke-width="3">
      <circle cx="10" cy="10" r="10" stroke="none"/>
      <circle cx="10" cy="10" r="8.5" fill="none"/>
    </g>
    <g id="Ellipse_17" data-name="Ellipse 17" transform="translate(246 384)" fill="none" stroke="#feedbf" stroke-width="3">
      <circle cx="10" cy="10" r="10" stroke="none"/>
      <circle cx="10" cy="10" r="8.5" fill="none"/>
    </g>
    <g id="Ellipse_18" data-name="Ellipse 18" transform="translate(246 294)" fill="none" stroke="#fedb7a" stroke-width="3">
      <circle cx="10" cy="10" r="10" stroke="none"/>
      <circle cx="10" cy="10" r="8.5" fill="none"/>
    </g>
    <g id="Ellipse_24" data-name="Ellipse 24" transform="translate(279 294)" fill="none" stroke="#fedb7a" stroke-width="3">
      <circle cx="10" cy="10" r="10" stroke="none"/>
      <circle cx="10" cy="10" r="8.5" fill="none"/>
    </g>
    <g id="Ellipse_26" data-name="Ellipse 26" transform="translate(279 324)" fill="none" stroke="#fede87" stroke-width="3">
      <circle cx="10" cy="10" r="10" stroke="none"/>
      <circle cx="10" cy="10" r="8.5" fill="none"/>
    </g>
    <g id="Ellipse_30" data-name="Ellipse 30" transform="translate(313 294)" fill="none" stroke="#fedb7a" stroke-width="3">
      <circle cx="10" cy="10" r="10" stroke="none"/>
      <circle cx="10" cy="10" r="8.5" fill="none"/>
    </g>
    <g id="Ellipse_48" data-name="Ellipse 48" transform="translate(14 294)" fill="none" stroke="#fedb7a" stroke-width="3">
      <circle cx="10" cy="10" r="10" stroke="none"/>
      <circle cx="10" cy="10" r="8.5" fill="none"/>
    </g>
    <g id="Ellipse_54" data-name="Ellipse 54" transform="translate(47 294)" fill="none" stroke="#fedb7a" stroke-width="3">
      <circle cx="10" cy="10" r="10" stroke="none"/>
      <circle cx="10" cy="10" r="8.5" fill="none"/>
    </g>
    <g id="Ellipse_60" data-name="Ellipse 60" transform="translate(80 294)" fill="none" stroke="#fedb7a" stroke-width="3">
      <circle cx="10" cy="10" r="10" stroke="none"/>
      <circle cx="10" cy="10" r="8.5" fill="none"/>
    </g>
    <g id="Ellipse_62" data-name="Ellipse 62" transform="translate(80 324)" fill="none" stroke="#fede87" stroke-width="3">
      <circle cx="10" cy="10" r="10" stroke="none"/>
      <circle cx="10" cy="10" r="8.5" fill="none"/>
    </g>
    <g id="Ellipse_64" data-name="Ellipse 64" transform="translate(114 354)" fill="none" stroke="#fee8aa" stroke-width="3">
      <circle cx="10" cy="10" r="10" stroke="none"/>
      <circle cx="10" cy="10" r="8.5" fill="none"/>
    </g>
    <g id="Ellipse_65" data-name="Ellipse 65" transform="translate(114 384)" fill="none" stroke="#feedbf" stroke-width="3">
      <circle cx="10" cy="10" r="10" stroke="none"/>
      <circle cx="10" cy="10" r="8.5" fill="none"/>
    </g>
    <g id="Ellipse_66" data-name="Ellipse 66" transform="translate(114 294)" fill="none" stroke="#fedb7a" stroke-width="3">
      <circle cx="10" cy="10" r="10" stroke="none"/>
      <circle cx="10" cy="10" r="8.5" fill="none"/>
    </g>
    <g id="Ellipse_68" data-name="Ellipse 68" transform="translate(147 324)" fill="none" stroke="#fede87" stroke-width="3">
      <circle cx="10" cy="10" r="10" stroke="none"/>
      <circle cx="10" cy="10" r="8.5" fill="none"/>
    </g>
    <g id="Rectangle_7" data-name="Rectangle 7" transform="translate(203.93 394) rotate(135)" fill="none" stroke="#feedbf" stroke-width="3">
      <rect width="20" height="20" stroke="none"/>
      <rect x="1.5" y="1.5" width="17" height="17" fill="none"/>
    </g>
    <g id="Ellipse_70" data-name="Ellipse 70" transform="translate(147 354)" fill="none" stroke="#fee8aa" stroke-width="3">
      <circle cx="10" cy="10" r="10" stroke="none"/>
      <circle cx="10" cy="10" r="8.5" fill="none"/>
    </g>
    <g id="Ellipse_71" data-name="Ellipse 71" transform="translate(147 384)" fill="none" stroke="#feedbf" stroke-width="3">
      <circle cx="10" cy="10" r="10" stroke="none"/>
      <circle cx="10" cy="10" r="8.5" fill="none"/>
    </g>
    <g id="Ellipse_72" data-name="Ellipse 72" transform="translate(147 294)" fill="none" stroke="#fedb7a" stroke-width="3">
      <circle cx="10" cy="10" r="10" stroke="none"/>
      <circle cx="10" cy="10" r="8.5" fill="none"/>
    </g>
    <g id="Ellipse_73" data-name="Ellipse 73" transform="translate(147 414)" fill="none" stroke="#fedb7a" stroke-width="3" opacity="0.34">
      <circle cx="10" cy="10" r="10" stroke="none"/>
      <circle cx="10" cy="10" r="8.5" fill="none"/>
    </g>
    <g id="Rectangle_3" data-name="Rectangle 3" transform="translate(281 354)" fill="#fff" stroke="#fee8aa" stroke-width="3">
      <path d="M0,0H5A15,15,0,0,1,20,15v5a0,0,0,0,1,0,0H15A15,15,0,0,1,0,5V0A0,0,0,0,1,0,0Z" stroke="none"/>
      <path d="M3,1.5H5A13.5,13.5,0,0,1,18.5,15v2A1.5,1.5,0,0,1,17,18.5H15A13.5,13.5,0,0,1,1.5,5V3A1.5,1.5,0,0,1,3,1.5Z" fill="none"/>
    </g>
    <g id="Rectangle_4" data-name="Rectangle 4" transform="translate(100 354) rotate(90)" fill="#fff" stroke="#fee8aa" stroke-width="3">
      <path d="M0,0H5A15,15,0,0,1,20,15v5a0,0,0,0,1,0,0H15A15,15,0,0,1,0,5V0A0,0,0,0,1,0,0Z" stroke="none"/>
      <path d="M3,1.5H5A13.5,13.5,0,0,1,18.5,15v2A1.5,1.5,0,0,1,17,18.5H15A13.5,13.5,0,0,1,1.5,5V3A1.5,1.5,0,0,1,3,1.5Z" fill="none"/>
    </g>
    <g id="Rectangle_5" data-name="Rectangle 5" transform="translate(34 324) rotate(90)" fill="none" stroke="#fede87" stroke-width="3">
      <path d="M15,0h5a0,0,0,0,1,0,0V20a0,0,0,0,1,0,0H0a0,0,0,0,1,0,0V15A15,15,0,0,1,15,0Z" stroke="none"/>
      <path d="M15,1.5h2A1.5,1.5,0,0,1,18.5,3V17A1.5,1.5,0,0,1,17,18.5H3A1.5,1.5,0,0,1,1.5,17V15A13.5,13.5,0,0,1,15,1.5Z" fill="none"/>
    </g>
    <g id="Ellipse_74" data-name="Ellipse 74" transform="translate(313 354)" fill="none" stroke="#fee8aa" stroke-width="3">
      <circle cx="10" cy="10" r="10" stroke="none"/>
      <circle cx="10" cy="10" r="8.5" fill="none"/>
    </g>
    <g id="Ellipse_75" data-name="Ellipse 75" transform="translate(313 384)" fill="none" stroke="#feedbf" stroke-width="3">
      <circle cx="10" cy="10" r="10" stroke="none"/>
      <circle cx="10" cy="10" r="8.5" fill="none"/>
    </g>
    <g id="Rectangle_8" data-name="Rectangle 8" transform="translate(281 384)" fill="#fff" stroke="#feedbf" stroke-width="3">
      <path d="M0,0H5A15,15,0,0,1,20,15v5a0,0,0,0,1,0,0H15A15,15,0,0,1,0,5V0A0,0,0,0,1,0,0Z" stroke="none"/>
      <path d="M3,1.5H5A13.5,13.5,0,0,1,18.5,15v2A1.5,1.5,0,0,1,17,18.5H15A13.5,13.5,0,0,1,1.5,5V3A1.5,1.5,0,0,1,3,1.5Z" fill="none"/>
    </g>
    <g id="Ellipse_80" data-name="Ellipse 80" transform="translate(47 384)" fill="none" stroke="#feedbf" stroke-width="3">
      <circle cx="10" cy="10" r="10" stroke="none"/>
      <circle cx="10" cy="10" r="8.5" fill="none"/>
    </g>
    <g id="Ellipse_81" data-name="Ellipse 81" transform="translate(80 384)" fill="none" stroke="#feedbf" stroke-width="3">
      <circle cx="10" cy="10" r="10" stroke="none"/>
      <circle cx="10" cy="10" r="8.5" fill="none"/>
    </g>
    <g id="Ellipse_84" data-name="Ellipse 84" transform="translate(47 354)" fill="none" stroke="#fee8aa" stroke-width="3">
      <circle cx="10" cy="10" r="10" stroke="none"/>
      <circle cx="10" cy="10" r="8.5" fill="none"/>
    </g>
    <g id="Rectangle_12" data-name="Rectangle 12" transform="translate(32 354) rotate(90)" fill="#fff" stroke="#fee8aa" stroke-width="3">
      <path d="M0,0H5A15,15,0,0,1,20,15v5a0,0,0,0,1,0,0H15A15,15,0,0,1,0,5V0A0,0,0,0,1,0,0Z" stroke="none"/>
      <path d="M3,1.5H5A13.5,13.5,0,0,1,18.5,15v2A1.5,1.5,0,0,1,17,18.5H15A13.5,13.5,0,0,1,1.5,5V3A1.5,1.5,0,0,1,3,1.5Z" fill="none"/>
    </g>
    <g id="Ellipse_36" data-name="Ellipse 36" transform="translate(345 294)" fill="none" stroke="#fedb7a" stroke-width="3">
      <circle cx="10" cy="10" r="10" stroke="none"/>
      <circle cx="10" cy="10" r="8.5" fill="none"/>
    </g>
    <g id="Rectangle_6" data-name="Rectangle 6" transform="translate(345 324)" fill="none" stroke="#fede87" stroke-width="3">
      <path d="M15,0h5a0,0,0,0,1,0,0V20a0,0,0,0,1,0,0H0a0,0,0,0,1,0,0V15A15,15,0,0,1,15,0Z" stroke="none"/>
      <path d="M15,1.5h2A1.5,1.5,0,0,1,18.5,3V17A1.5,1.5,0,0,1,17,18.5H3A1.5,1.5,0,0,1,1.5,17V15A13.5,13.5,0,0,1,15,1.5Z" fill="none"/>
    </g>
    <g id="Rectangle_13" data-name="Rectangle 13" transform="translate(345 384)" fill="none" stroke="#feedbf" stroke-width="3">
      <path d="M15,0h5a0,0,0,0,1,0,0V20a0,0,0,0,1,0,0H0a0,0,0,0,1,0,0V15A15,15,0,0,1,15,0Z" stroke="none"/>
      <path d="M15,1.5h2A1.5,1.5,0,0,1,18.5,3V17A1.5,1.5,0,0,1,17,18.5H3A1.5,1.5,0,0,1,1.5,17V15A13.5,13.5,0,0,1,15,1.5Z" fill="none"/>
    </g>
    <g id="Ellipse_85" data-name="Ellipse 85" transform="translate(345 354)" fill="none" stroke="#fee8aa" stroke-width="3">
      <circle cx="10" cy="10" r="10" stroke="none"/>
      <circle cx="10" cy="10" r="8.5" fill="none"/>
    </g>
    <g id="Ellipse_86" data-name="Ellipse 86" transform="translate(47 324)" fill="none" stroke="#fede87" stroke-width="3">
      <circle cx="10" cy="10" r="10" stroke="none"/>
      <circle cx="10" cy="10" r="8.5" fill="none"/>
    </g>
    <g id="Rectangle_14" data-name="Rectangle 14" transform="translate(203.93 334) rotate(135)" fill="none" stroke="#fede87" stroke-width="3">
      <rect width="20" height="20" stroke="none"/>
      <rect x="1.5" y="1.5" width="17" height="17" fill="none"/>
    </g>
    <g id="Rectangle_15" data-name="Rectangle 15" transform="translate(134 324) rotate(90)" fill="#fff" stroke="#fede87" stroke-width="3">
      <path d="M0,0H5A15,15,0,0,1,20,15v5a0,0,0,0,1,0,0H15A15,15,0,0,1,0,5V0A0,0,0,0,1,0,0Z" stroke="none"/>
      <path d="M3,1.5H5A13.5,13.5,0,0,1,18.5,15v2A1.5,1.5,0,0,1,17,18.5H15A13.5,13.5,0,0,1,1.5,5V3A1.5,1.5,0,0,1,3,1.5Z" fill="none"/>
    </g>
    <g id="Ellipse_87" data-name="Ellipse 87" transform="translate(313 324)" fill="none" stroke="#fede87" stroke-width="3">
      <circle cx="10" cy="10" r="10" stroke="none"/>
      <circle cx="10" cy="10" r="8.5" fill="none"/>
    </g>
    <g id="Ellipse_88" data-name="Ellipse 88" transform="translate(246 324)" fill="none" stroke="#fede87" stroke-width="3">
      <circle cx="10" cy="10" r="10" stroke="none"/>
      <circle cx="10" cy="10" r="8.5" fill="none"/>
    </g>
  </g>
</svg>
